<svg width="180" height="46" viewBox="0 0 180 46" fill="none" xmlns="http://www.w3.org/2000/svg">
<path d="M21.25 32.375C21.4158 32.375 21.5747 32.3092 21.6919 32.1919C21.8092 32.0747 21.875 31.9158 21.875 31.75V29.875H23.75C24.7213 29.8554 25.647 29.4596 26.3323 28.7709C27.0175 28.0823 27.4088 27.1547 27.4237 26.1833C27.4386 25.2119 27.076 24.2727 26.4122 23.5634C25.7484 22.8541 24.8352 22.4301 23.865 22.3806C24.3062 21.8935 24.6113 21.2988 24.7496 20.6563C24.8879 20.0137 24.8545 19.3461 24.6527 18.7206C24.451 18.0951 24.0881 17.5338 23.6004 17.0932C23.1128 16.6526 22.5177 16.3482 21.875 16.2106V14.25C21.875 14.0842 21.8092 13.9253 21.6919 13.8081C21.5747 13.6908 21.4158 13.625 21.25 13.625C21.0842 13.625 20.9253 13.6908 20.8081 13.8081C20.6908 13.9253 20.625 14.0842 20.625 14.25V16.125H19.375V14.25C19.375 14.0842 19.3092 13.9253 19.1919 13.8081C19.0747 13.6908 18.9158 13.625 18.75 13.625C18.5842 13.625 18.4253 13.6908 18.3081 13.8081C18.1908 13.9253 18.125 14.0842 18.125 14.25V16.125H14.375C14.2092 16.125 14.0503 16.1908 13.9331 16.3081C13.8158 16.4253 13.75 16.5842 13.75 16.75C13.75 16.9158 13.8158 17.0747 13.9331 17.1919C14.0503 17.3092 14.2092 17.375 14.375 17.375H16.25V28.625H14.375C14.2092 28.625 14.0503 28.6908 13.9331 28.8081C13.8158 28.9253 13.75 29.0842 13.75 29.25C13.75 29.4158 13.8158 29.5747 13.9331 29.6919C14.0503 29.8092 14.2092 29.875 14.375 29.875H18.125V31.75C18.125 31.9158 18.1908 32.0747 18.3081 32.1919C18.4253 32.3092 18.5842 32.375 18.75 32.375C18.9158 32.375 19.0747 32.3092 19.1919 32.1919C19.3092 32.0747 19.375 31.9158 19.375 31.75V29.875H20.625V31.75C20.625 31.9158 20.6908 32.0747 20.8081 32.1919C20.9253 32.3092 21.0842 32.375 21.25 32.375ZM23.5831 19.875C23.5831 20.538 23.3197 21.1739 22.8509 21.6428C22.3821 22.1116 21.7462 22.375 21.0831 22.375H17.5V17.375H21.0831C21.7462 17.375 22.3821 17.6384 22.8509 18.1072C23.3197 18.5761 23.5831 19.212 23.5831 19.875ZM17.5 23.625H23.75C24.413 23.625 25.0489 23.8884 25.5178 24.3572C25.9866 24.8261 26.25 25.462 26.25 26.125C26.25 26.788 25.9866 27.4239 25.5178 27.8928C25.0489 28.3616 24.413 28.625 23.75 28.625H17.5V23.625Z" fill="#5F82FF"/>
<path d="M20 4.25C16.2916 4.25 12.6665 5.34967 9.58307 7.40994C6.49964 9.47022 4.09641 12.3986 2.67727 15.8247C1.25812 19.2508 0.886812 23.0208 1.61028 26.6579C2.33376 30.2951 4.11952 33.636 6.74176 36.2583C9.36399 38.8805 12.7049 40.6663 16.3421 41.3897C19.9792 42.1132 23.7492 41.7419 27.1753 40.3227C30.6014 38.9036 33.5298 36.5004 35.5901 33.4169C37.6503 30.3335 38.75 26.7084 38.75 23C38.7444 18.0289 36.7671 13.263 33.252 9.74796C29.737 6.23287 24.9711 4.25562 20 4.25ZM20 40.5C16.5388 40.5 13.1554 39.4736 10.2775 37.5507C7.39967 35.6278 5.15665 32.8947 3.83212 29.697C2.50758 26.4993 2.16102 22.9806 2.83627 19.5859C3.51151 16.1913 5.17822 13.073 7.62564 10.6256C10.0731 8.17821 13.1913 6.5115 16.5859 5.83626C19.9806 5.16102 23.4993 5.50757 26.697 6.83211C29.8947 8.15664 32.6278 10.3997 34.5507 13.2775C36.4737 16.1554 37.5 19.5388 37.5 23C37.4947 27.6397 35.6493 32.0878 32.3685 35.3685C29.0878 38.6493 24.6397 40.4947 20 40.5Z" fill="#5F82FF"/>
<path d="M31.0346 13.4956C31.0346 13.1035 30.9183 12.7202 30.7005 12.3942C30.4826 12.0682 30.173 11.8141 29.8108 11.664C29.4485 11.514 29.0499 11.4747 28.6653 11.5512C28.2808 11.6277 27.9275 11.8165 27.6502 12.0938C27.373 12.371 27.1842 12.7243 27.1077 13.1089C27.0312 13.4934 27.0704 13.892 27.2205 14.2543C27.3705 14.6165 27.6246 14.9262 27.9507 15.144C28.2767 15.3619 28.66 15.4781 29.0521 15.4781C29.3239 15.478 29.5927 15.4214 29.8415 15.3119C31.6002 17.5638 32.534 20.3504 32.4874 23.2074C32.4408 26.0643 31.4165 28.819 29.5853 31.0123C27.754 33.2057 25.2264 34.7052 22.4237 35.261C19.621 35.8168 16.7124 35.3954 14.1827 34.0669C14.0362 33.9908 13.8655 33.9757 13.708 34.025C13.5504 34.0742 13.4187 34.1839 13.3417 34.3299C13.2647 34.4759 13.2486 34.6465 13.2969 34.8044C13.3452 34.9622 13.454 35.0946 13.5996 35.1725C16.3893 36.6436 19.6001 37.1103 22.6931 36.4943C25.7862 35.8783 28.5732 34.2171 30.5865 31.7895C32.5997 29.3619 33.7166 26.3156 33.7497 23.162C33.7828 20.0084 32.7302 16.9394 30.7683 14.47C30.9406 14.174 31.0323 13.8381 31.0346 13.4956ZM28.3196 13.4956C28.3196 13.3507 28.3625 13.2091 28.443 13.0887C28.5235 12.9682 28.6379 12.8743 28.7718 12.8189C28.9056 12.7634 29.0529 12.7489 29.195 12.7772C29.3371 12.8055 29.4676 12.8752 29.57 12.9777C29.6725 13.0801 29.7422 13.2106 29.7705 13.3527C29.7988 13.4948 29.7843 13.6421 29.7288 13.7759C29.6734 13.9098 29.5795 14.0242 29.459 14.1047C29.3386 14.1852 29.197 14.2281 29.0521 14.2281C28.9559 14.2281 28.8606 14.2092 28.7718 14.1724C28.6829 14.1356 28.6021 14.0816 28.5341 14.0136C28.4661 13.9456 28.4122 13.8648 28.3753 13.7759C28.3385 13.6871 28.3196 13.5918 28.3196 13.4956Z" fill="#5F82FF"/>
<path d="M10.4955 30.5219C10.3499 30.5228 10.2048 30.5398 10.063 30.5725C8.39344 28.4019 7.4919 25.7384 7.49984 23C7.50364 19.686 8.82183 16.5088 11.1652 14.1654C13.5086 11.822 16.6858 10.5038 19.9998 10.5C21.8278 10.4952 23.6342 10.8952 25.2892 11.6713C25.4394 11.7416 25.6113 11.7493 25.7672 11.6928C25.9231 11.6363 26.0502 11.5202 26.1205 11.37C26.1907 11.2198 26.1985 11.0479 26.142 10.892C26.0855 10.7361 25.9694 10.6091 25.8192 10.5388C23.0435 9.23956 19.9132 8.9054 16.9258 9.58943C13.9383 10.2735 11.2653 11.9364 9.33145 14.314C7.39761 16.6915 6.31396 19.6473 6.25274 22.7114C6.19153 25.7755 7.15626 28.7721 8.99359 31.225C8.68532 31.5802 8.51477 32.0341 8.51296 32.5044C8.51296 32.8965 8.62924 33.2798 8.84708 33.6058C9.06492 33.9318 9.37454 34.1859 9.73679 34.336C10.099 34.486 10.4977 34.5253 10.8822 34.4488C11.2668 34.3723 11.62 34.1835 11.8973 33.9062C12.1746 33.629 12.3634 33.2757 12.4399 32.8912C12.5164 32.5066 12.4771 32.108 12.3271 31.7457C12.177 31.3835 11.9229 31.0739 11.5969 30.856C11.2709 30.6382 10.8876 30.5219 10.4955 30.5219ZM10.4955 33.2369C10.3506 33.2369 10.209 33.1939 10.0885 33.1135C9.96805 33.033 9.87416 32.9186 9.81872 32.7847C9.76328 32.6509 9.74878 32.5036 9.77704 32.3615C9.8053 32.2194 9.87507 32.0889 9.97751 31.9864C10.08 31.884 10.2105 31.8142 10.3526 31.786C10.4947 31.7577 10.6419 31.7722 10.7758 31.8277C10.9096 31.8831 11.024 31.977 11.1045 32.0974C11.185 32.2179 11.228 32.3595 11.228 32.5044C11.228 32.6006 11.209 32.6958 11.1722 32.7847C11.1354 32.8736 11.0814 32.9543 11.0134 33.0224C10.9454 33.0904 10.8647 33.1443 10.7758 33.1811C10.6869 33.218 10.5917 33.2369 10.4955 33.2369Z" fill="#5F82FF"/>
<path d="M65.52 32.776C65.52 33.544 65.328 34.248 64.944 34.888C64.56 35.528 64.048 36.04 63.408 36.424C62.768 36.808 62.064 37 61.296 37H52.752C52.3467 37 51.9947 36.8613 51.696 36.584C51.4187 36.2853 51.28 35.9333 51.28 35.528V16.84C51.28 16.4133 51.4187 16.0613 51.696 15.784C51.9947 15.5067 52.3467 15.368 52.752 15.368H60.848C61.6373 15.368 62.3413 15.56 62.96 15.944C63.6 16.328 64.112 16.84 64.496 17.48C64.88 18.12 65.072 18.8347 65.072 19.624V23.432C65.072 24.008 64.9653 24.5413 64.752 25.032C64.6453 25.2667 64.6667 25.5013 64.816 25.736C65.2853 26.44 65.52 27.2293 65.52 28.104V32.776ZM61.296 23.432V19.624C61.296 19.496 61.2427 19.3893 61.136 19.304C61.0507 19.2187 60.9547 19.176 60.848 19.176H55.536C55.2587 19.176 55.12 19.3147 55.12 19.592V23.432C55.12 23.7093 55.2587 23.848 55.536 23.848H60.848C60.9547 23.848 61.0507 23.8053 61.136 23.72C61.2427 23.6347 61.296 23.5387 61.296 23.432ZM61.712 32.776V28.104C61.712 27.8053 61.5733 27.656 61.296 27.656H55.536C55.2587 27.656 55.12 27.7947 55.12 28.072V32.808C55.12 33.0853 55.2587 33.224 55.536 33.224H61.296C61.4027 33.224 61.4987 33.1813 61.584 33.096C61.6693 32.9893 61.712 32.8827 61.712 32.776ZM72.9558 17.416C72.9558 18.0773 72.7104 18.6533 72.2198 19.144C71.7504 19.6133 71.1958 19.848 70.5558 19.848C69.8944 19.848 69.3184 19.6133 68.8278 19.144C68.3584 18.6533 68.1238 18.0773 68.1238 17.416C68.1238 16.776 68.3584 16.2213 68.8278 15.752C69.3184 15.2613 69.8944 15.016 70.5558 15.016C71.1958 15.016 71.7504 15.2613 72.2198 15.752C72.7104 16.2213 72.9558 16.776 72.9558 17.416ZM72.4438 35.528C72.4438 35.9333 72.2944 36.2853 71.9958 36.584C71.7184 36.8613 71.3771 37 70.9718 37H70.1078C69.7024 37 69.3504 36.8613 69.0518 36.584C68.7744 36.2853 68.6358 35.9333 68.6358 35.528V22.248C68.6358 21.8427 68.7744 21.5013 69.0518 21.224C69.3504 20.9253 69.7024 20.776 70.1078 20.776H70.9718C71.3771 20.776 71.7184 20.9253 71.9958 21.224C72.2944 21.5013 72.4438 21.8427 72.4438 22.248V35.528ZM85.034 35.528C85.034 35.9333 84.8953 36.2853 84.618 36.584C84.3407 36.8613 83.9993 37 83.594 37H79.114C78.1327 37 77.29 36.6587 76.586 35.976C75.9033 35.272 75.562 34.4187 75.562 33.416V16.84C75.562 16.4133 75.7007 16.0613 75.978 15.784C76.2553 15.5067 76.5967 15.368 77.002 15.368H77.898C78.3033 15.368 78.6447 15.5067 78.922 15.784C79.2207 16.0613 79.37 16.4133 79.37 16.84V20.04C79.37 20.296 79.5087 20.424 79.786 20.424H83.594C83.9993 20.424 84.3407 20.5733 84.618 20.872C84.8953 21.1493 85.034 21.5013 85.034 21.928V22.792C85.034 23.1547 84.8953 23.496 84.618 23.816C84.298 24.0933 83.9567 24.232 83.594 24.232H79.786C79.5087 24.232 79.37 24.3813 79.37 24.68V32.808C79.37 33.0853 79.5087 33.224 79.786 33.224H83.594C83.9993 33.224 84.3407 33.3627 84.618 33.64C84.8953 33.9173 85.034 34.2693 85.034 34.696V35.528ZM102.28 35.528C102.28 35.9333 102.13 36.2853 101.832 36.584C101.554 36.8613 101.213 37 100.808 37H99.8798C99.3038 37 98.8771 36.7547 98.5998 36.264L91.7838 24.456C91.7411 24.3707 91.6771 24.3493 91.5918 24.392C91.5064 24.4133 91.4638 24.456 91.4638 24.52V35.528C91.4638 35.9333 91.3144 36.2853 91.0158 36.584C90.7384 36.8613 90.4078 37 90.0238 37H89.1278C88.7224 37 88.3704 36.8613 88.0718 36.584C87.7944 36.2853 87.6558 35.9333 87.6558 35.528V16.84C87.6558 16.4133 87.7944 16.0613 88.0718 15.784C88.3704 15.5067 88.7224 15.368 89.1278 15.368H90.0558C90.6318 15.368 91.0584 15.6133 91.3358 16.104L98.1518 27.912C98.2158 27.9973 98.2798 28.0293 98.3438 28.008C98.4291 27.9867 98.4718 27.9333 98.4718 27.848V16.84C98.4718 16.4133 98.6104 16.0613 98.8878 15.784C99.1864 15.5067 99.5384 15.368 99.9438 15.368H100.808C101.213 15.368 101.554 15.5067 101.832 15.784C102.13 16.0613 102.28 16.4133 102.28 16.84V35.528ZM116.458 33.416C116.458 34.4187 116.106 35.272 115.402 35.976C114.719 36.6587 113.887 37 112.906 37H108.458C107.476 37 106.634 36.6587 105.93 35.976C105.226 35.272 104.874 34.4187 104.874 33.416V24.008C104.874 23.3467 105.034 22.7493 105.354 22.216C105.695 21.6613 106.132 21.224 106.666 20.904C107.199 20.584 107.796 20.424 108.458 20.424H112.906C113.567 20.424 114.164 20.584 114.698 20.904C115.231 21.224 115.658 21.6613 115.978 22.216C116.298 22.7493 116.458 23.3467 116.458 24.008V33.416ZM112.682 32.808V24.68C112.682 24.552 112.628 24.4453 112.522 24.36C112.436 24.2747 112.34 24.232 112.234 24.232H109.13C109.023 24.232 108.916 24.2747 108.81 24.36C108.724 24.4453 108.682 24.552 108.682 24.68V32.808C108.682 32.9147 108.724 33.0107 108.81 33.096C108.916 33.1813 109.023 33.224 109.13 33.224H112.234C112.34 33.224 112.436 33.1813 112.522 33.096C112.628 33.0107 112.682 32.9147 112.682 32.808ZM134.517 22.216L131.605 35.848C131.541 36.1893 131.371 36.4667 131.093 36.68C130.837 36.8933 130.539 37 130.197 37H129.301C128.96 37 128.651 36.8933 128.373 36.68C128.117 36.4667 127.947 36.1893 127.861 35.848L126.965 31.752C126.944 31.6453 126.891 31.592 126.805 31.592C126.72 31.592 126.667 31.6453 126.645 31.752L125.781 35.848C125.696 36.1893 125.525 36.4667 125.269 36.68C125.013 36.8933 124.704 37 124.341 37H123.445C123.104 37 122.795 36.8933 122.517 36.68C122.261 36.4667 122.091 36.1893 122.005 35.848L119.093 22.216C118.987 21.7467 119.072 21.3413 119.349 21C119.691 20.616 120.075 20.424 120.501 20.424H121.429C121.771 20.424 122.069 20.5307 122.325 20.744C122.603 20.9573 122.784 21.2453 122.869 21.608L123.733 25.704C123.755 25.7893 123.797 25.832 123.861 25.832C123.947 25.832 124 25.7893 124.021 25.704L124.949 21.608C125.013 21.2453 125.173 20.9573 125.429 20.744C125.707 20.5307 126.016 20.424 126.357 20.424H127.285C127.605 20.424 127.904 20.5307 128.181 20.744C128.459 20.9573 128.619 21.2453 128.661 21.608L129.589 25.736C129.611 25.8213 129.653 25.864 129.717 25.864C129.803 25.864 129.856 25.8213 129.877 25.736L130.773 21.608C130.859 21.2453 131.029 20.9573 131.285 20.744C131.563 20.5307 131.872 20.424 132.213 20.424H133.141C133.568 20.424 133.941 20.616 134.261 21C134.56 21.384 134.645 21.7893 134.517 22.216Z" fill="#D7F5FF"/>
</svg>
